<?xml version="1.0" encoding="utf-8"?>
<!-- Generator: Adobe Illustrator 27.3.1, SVG Export Plug-In . SVG Version: 6.00 Build 0)  -->
<svg version="1.2" baseProfile="tiny" id="Layer_1" xmlns="http://www.w3.org/2000/svg" xmlns:xlink="http://www.w3.org/1999/xlink"
	 x="0px" y="0px" viewBox="0 0 75 75" overflow="visible" xml:space="preserve">
<path fill="#071A2B" d="M8.05,0h59c4.42,0,8,3.58,8,8v59c0,4.42-3.58,8-8,8h-59c-4.42,0-8-3.58-8-8V8C0.05,3.58,3.63,0,8.05,0z"/>
<g>
	<path fill="#FFFFFF" d="M26.53,23.43c0.1,0.25-0.31,0.43-0.66,1.15c-0.93,1.94,0.68,3.57,0.52,6.08c-0.12,1.82-1.16,4.1-3,4.75
		c-1.89,0.67-3.7-0.71-3.97-0.93c-2.08-1.65-2.02-4.39-2.01-4.65c0.08-2.1,1.3-3.47,1.77-4C21.77,22.91,26.21,22.66,26.53,23.43z"/>
	<path fill="#FFFFFF" d="M24.73,27.88"/>
	<path fill="#FFFFFF" d="M21.05,53.3"/>
	<path fill="#FFFFFF" d="M21.98,38.58c2.9-0.57,5.33-0.29,6.85,0l-1.2,0.75c-0.61,0.36-2.7,1.68-3.43,4.28
		c-0.88,3.13,0.55,6.84,3.65,9.01l0.99,0.69c-1.27,0.35-3.84,0.87-6.85,0c-1.9-0.55-4.79-1.38-6.11-4.25
		c-1.32-2.86-0.56-6.6,1.49-8.59C18.59,39.24,20,38.96,21.98,38.58z"/>
	<path fill="#FFFFFF" d="M15.27,47.88"/>
	<polygon fill="#FFFFFF" points="35.31,23.35 41.87,23.35 41.85,53.3 35.31,53.3 35.31,23.5 	"/>
	<path fill="#FFFFFF" d="M49.03,24"/>
	<path fill="#FFFFFF" d="M48.08,23.35"/>
	<path fill="#FFFFFF" d="M59.13,23.45H48.87l-0.34-0.1c0,0,5.07,4.93,4.26,7.13L59.13,23.45z"/>
	<path fill="#FFFFFF" d="M54.36,31.03"/>
	<rect x="43.6" y="19.62" fill="#071A2B" width="4.93" height="3.03"/>
	<rect x="47" y="20.47" fill="#071A2B" width="3.75" height="2.45"/>
	<polygon fill="#071A2B" points="48.39,27.47 45.74,24.66 47.37,22.93 50.03,25.74 	"/>
	<polygon fill="#071A2B" points="49.98,33.97 48.45,30.34 51.51,28.89 53.05,32.52 	"/>
	<polygon fill="#071A2B" points="50.47,33.69 48.57,30.21 51.59,28.36 53.49,31.84 	"/>
	<polygon fill="#FFFFFF" points="44.89,39.46 49.1,34.96 61.11,53.15 60.83,53.3 53.94,53.3 44.89,39.31 	"/>
	<path fill="#FFFFFF" d="M8.75,15.5"/>
</g>
</svg>
